<?xml version="1.0" encoding="utf-8"?>
<!-- Generator: Adobe Illustrator 24.1.3, SVG Export Plug-In . SVG Version: 6.00 Build 0)  -->
<svg version="1.1" id="Capa_1" xmlns="http://www.w3.org/2000/svg" xmlns:xlink="http://www.w3.org/1999/xlink" x="0px" y="0px"
	 viewBox="0 0 203.89 51.88" style="enable-background:new 0 0 203.89 51.88;" xml:space="preserve">
<style type="text/css">
	.st0{fill:#1D1D1B;}
	.st1{fill:#0000FF;}
</style>
<g>
	<path class="st0" d="M0,0.98C3.17,0.45,7.32,0,12.6,0c6.49,0,11.24,1.51,14.26,4.22c2.79,2.41,4.45,6.11,4.45,10.64
		c0,4.6-1.36,8.22-3.92,10.86c-3.47,3.7-9.13,5.58-15.54,5.58c-1.96,0-3.77-0.08-5.28-0.45v20.37H0V0.98z M6.56,25.5
		c1.43,0.38,3.24,0.53,5.43,0.53c7.92,0,12.75-3.85,12.75-10.86c0-6.71-4.75-9.96-11.99-9.96c-2.87,0-5.05,0.23-6.18,0.53V25.5z"/>
	<path class="st0" d="M56.52,36.46c0,10.74-7.44,15.42-14.46,15.42c-7.86,0-13.92-5.76-13.92-14.94c0-9.72,6.36-15.42,14.4-15.42
		C50.88,21.52,56.52,27.58,56.52,36.46z M33.48,36.76c0,6.36,3.66,11.16,8.82,11.16c5.04,0,8.82-4.74,8.82-11.28
		c0-4.92-2.46-11.16-8.7-11.16C36.18,25.48,33.48,31.24,33.48,36.76z"/>
	<g>
		<path class="st0" d="M113.9,18.85h-0.29c0.1,0,0.19,0.01,0.29,0.01V18.85z"/>
		<path class="st0" d="M113.9,18.85c-0.1,0-0.19,0-0.29,0H96v-1.53c0-4.54-0.9-8.67-3.36-11.28c-1.98-2.14-4.62-3-7.08-3
			c-1.86,0-3.48,0.47-4.5,0.93l0.72,4.54c0.78-0.4,1.86-0.73,3.36-0.73c4.5,0,5.64,4.4,5.64,9.34v1.73H77.52v0
			c-1,0-1.01-0.02-1.5-0.02c-3.54,0-6.72,2.02-8.04,6.36h-0.24l-0.18-6.34h-4.62c0.18,3,0.24,6.27,0.24,10.08v22.22h5.22V33.93
			c0-1,0.12-1.93,0.24-2.74c0.72-4.4,2.98-7.87,7.07-7.87c0.62,0,0.91,0,1.81,0h13.26v27.83H96V23.32l7.24-0.11
			c-2.48,2.75-4,6.78-4,12.06c0,10.21,6.06,16.62,13.92,16.62c7.02,0,14.46-5.21,14.46-17.15C127.62,24.97,122.08,18.98,113.9,18.85
			z M113.4,47.47c-5.16,0-8.82-5.34-8.82-12.41c0-5.05,1.84-10.28,5.97-11.97c0.89-0.36,1.87-0.57,2.97-0.57
			c0.13,0,0.25,0.02,0.38,0.03c5.95,0.28,8.32,7.03,8.32,12.38C122.22,42.2,118.44,47.47,113.4,47.47z"/>
	</g>
	<path class="st0" d="M134.28,8.62h5.28v42.6h-5.28V8.62z"/>
	<path class="st0" d="M154.32,14.02c0.06,1.8-1.26,3.24-3.36,3.24c-1.86,0-3.18-1.44-3.18-3.24c0-1.86,1.38-3.3,3.3-3.3
		C153.06,10.72,154.32,12.16,154.32,14.02z M148.44,51.22V22.18h5.28v29.04H148.44z"/>
	<path class="st0" d="M188.76,36.46c0,10.74-7.44,15.42-14.46,15.42c-7.86,0-13.92-5.76-13.92-14.94c0-9.72,6.36-15.42,14.4-15.42
		C183.12,21.52,188.76,27.58,188.76,36.46z M165.72,36.76c0,6.36,3.66,11.16,8.82,11.16c5.04,0,8.82-4.74,8.82-11.28
		c0-4.92-2.46-11.16-8.7-11.16C168.42,25.48,165.72,31.24,165.72,36.76z"/>
	<path class="st1" d="M192.72,45.96c0-3.47,2.35-5.91,5.63-5.91s5.54,2.44,5.54,5.91c0,3.38-2.16,5.91-5.63,5.91
		C194.97,51.88,192.72,49.34,192.72,45.96z"/>
</g>
</svg>
